<svg xmlns="http://www.w3.org/2000/svg" width="24" height="24" fill="none" overflow="visible"><g><path d="M 24 12.572 C 24 10.766 23 9.2 21.545 8.457 C 21.721 7.96 21.817 7.423 21.817 6.857 C 21.817 4.332 19.863 2.288 17.454 2.288 C 16.917 2.288 16.403 2.384 15.927 2.574 C 15.221 1.046 13.726 0 12.001 0 C 10.275 0 8.782 1.048 8.073 2.572 C 7.599 2.383 7.083 2.286 6.546 2.286 C 4.135 2.286 2.183 4.332 2.183 6.857 C 2.183 7.422 2.278 7.959 2.454 8.457 C 1 9.2 0 10.764 0 12.572 C 0 14.28 0.894 15.769 2.219 16.556 C 2.196 16.75 2.183 16.944 2.183 17.143 C 2.183 19.669 4.135 21.714 6.546 21.714 C 7.083 21.714 7.597 21.616 8.072 21.429 C 8.78 22.954 10.273 24 11.999 24 C 13.727 24 15.22 22.954 15.927 21.429 C 16.402 21.615 16.916 21.712 17.454 21.712 C 19.865 21.712 21.817 19.666 21.817 17.141 C 21.817 16.942 21.804 16.748 21.78 16.555 C 23.103 15.769 24 14.28 24 12.573 Z" fill="rgb(255, 255, 255)"></path><path d="M 13.058 12.051 L 16.395 8.715 C 16.673 8.437 16.673 7.986 16.395 7.708 C 16.117 7.431 15.666 7.431 15.388 7.708 L 12.052 11.044 L 8.715 7.708 C 8.437 7.431 7.987 7.431 7.709 7.708 C 7.43 7.986 7.43 8.437 7.709 8.715 L 11.045 12.051 L 7.709 15.386 C 7.43 15.664 7.43 16.115 7.709 16.393 C 7.843 16.527 8.025 16.603 8.207 16.603 C 8.389 16.603 8.571 16.536 8.706 16.393 L 12.052 13.057 L 15.388 16.393 C 15.522 16.527 15.705 16.603 15.887 16.603 C 16.069 16.603 16.251 16.536 16.385 16.393 C 16.663 16.115 16.663 15.664 16.385 15.386 Z" fill="rgb(0, 0, 0)"></path></g></svg>