<svg xmlns="http://www.w3.org/2000/svg" width="24" height="24" fill="none" overflow="visible"><g><path d="M 16.032 2.262 C 15.176 0.856 13.647 -0.002 12 0 C 10.353 -0.001 8.824 0.857 7.968 2.264 C 6.367 1.874 4.678 2.347 3.513 3.513 C 2.348 4.678 1.875 6.366 2.265 7.966 C 0.858 8.824 0 10.351 0 11.998 C -0.001 13.645 0.857 15.173 2.263 16.03 C 1.873 17.631 2.347 19.319 3.513 20.483 C 4.677 21.649 6.366 22.122 7.967 21.732 C 8.823 23.14 10.351 24 11.999 24 C 13.647 24 15.176 23.141 16.032 21.734 C 16.82 21.925 17.643 21.911 18.424 21.692 C 20.01 21.246 21.249 20.006 21.694 18.42 C 21.913 17.64 21.927 16.817 21.735 16.03 C 23.143 15.174 24.001 13.645 24 11.998 C 24 10.351 23.142 8.823 21.735 7.966 C 22.125 6.366 21.651 4.678 20.486 3.514 C 19.913 2.941 19.203 2.525 18.424 2.306 C 17.643 2.087 16.82 2.072 16.032 2.262 Z" fill="rgb(0, 0, 0)"></path><path d="M 11.199 16.177 L 16.673 7.966 C 17.353 6.951 15.772 5.897 15.094 6.913 L 10.262 14.163 L 8.618 12.522 C 7.757 11.656 6.415 12.997 7.279 13.861 L 9.882 16.44 C 9.986 16.511 10.102 16.558 10.225 16.582 C 10.602 16.659 10.988 16.499 11.199 16.177 Z" fill="rgb(255, 255, 255)"></path></g></svg>