<svg xmlns="http://www.w3.org/2000/svg" width="24" height="24" fill="none" overflow="visible"><path d="M 24 12.573 C 24 14.28 23.103 15.769 21.78 16.555 C 21.804 16.748 21.817 16.942 21.817 17.141 C 21.817 19.666 19.865 21.712 17.454 21.712 C 16.916 21.712 16.402 21.615 15.927 21.429 C 15.22 22.954 13.727 24 11.999 24 C 10.273 24 8.78 22.954 8.072 21.429 C 7.597 21.616 7.083 21.714 6.546 21.714 C 4.135 21.714 2.183 19.669 2.183 17.143 C 2.183 16.944 2.196 16.75 2.219 16.556 C 0.894 15.769 0 14.28 0 12.572 C 0 10.764 1 9.2 2.454 8.457 C 2.278 7.959 2.183 7.422 2.183 6.857 C 2.183 4.332 4.135 2.286 6.546 2.286 C 7.083 2.286 7.599 2.383 8.073 2.572 C 8.782 1.048 10.275 0 12.001 0 C 13.726 0 15.221 1.046 15.927 2.574 C 16.403 2.384 16.917 2.288 17.454 2.288 C 19.863 2.288 21.817 4.332 21.817 6.857 C 21.817 7.423 21.721 7.96 21.545 8.457 C 23 9.2 24 10.766 24 12.572 Z M 12.996 12.001 L 16.333 8.666 C 16.611 8.388 16.611 7.937 16.333 7.659 C 16.055 7.381 15.604 7.381 15.326 7.659 L 11.989 10.995 L 8.653 7.659 C 8.375 7.381 7.924 7.381 7.646 7.659 C 7.368 7.937 7.368 8.388 7.646 8.666 L 10.983 12.001 L 7.646 15.337 C 7.368 15.615 7.368 16.065 7.646 16.343 C 7.78 16.478 7.963 16.554 8.145 16.554 C 8.327 16.554 8.509 16.487 8.643 16.343 L 11.989 13.008 L 15.326 16.343 C 15.46 16.478 15.642 16.554 15.825 16.554 C 16.007 16.554 16.189 16.487 16.323 16.343 C 16.601 16.065 16.601 15.615 16.323 15.337 Z" fill="rgb(38, 38, 38)"></path></svg>